<svg xmlns="http://www.w3.org/2000/svg" viewBox="0 0 41.7 41.7">
  <defs>
    <style>
      .a {
        fill: #da3174;
      }

      .b {
        fill: #fff;
      }
    </style>
  </defs>
  <title>Ресурс 3</title>
  <g>
    <rect class="a" width="41.7" height="41.67"/>
    <g>
      <path class="b" d="M21.1,9.1h5.4a7.4,7.4,0,0,1,2.5.5,4.4,4.4,0,0,1,2.5,2.5,7.4,7.4,0,0,1,.5,2.5c.1,1.4.1,1.8.1,5.4s0,4-.1,5.4a7.4,7.4,0,0,1-.5,2.5A4.4,4.4,0,0,1,29,30.5a7.4,7.4,0,0,1-2.5.5H15.7a7.4,7.4,0,0,1-2.5-.5,4.4,4.4,0,0,1-2.5-2.5,7.4,7.4,0,0,1-.5-2.5c-.1-1.4-.1-1.8-.1-5.4s0-4,.1-5.4a7.4,7.4,0,0,1,.5-2.5,4.4,4.4,0,0,1,2.5-2.5,7.4,7.4,0,0,1,2.5-.5h5.4m0-2.4H15.6a9.8,9.8,0,0,0-3.2.6,6.8,6.8,0,0,0-3.9,3.9,9.8,9.8,0,0,0-.6,3.2c-.1,1.4-.1,1.9-.1,5.5s0,4.1.1,5.5a9.8,9.8,0,0,0,.6,3.2,6.8,6.8,0,0,0,3.9,3.9,9.8,9.8,0,0,0,3.2.6h11a9.8,9.8,0,0,0,3.2-.6,6.8,6.8,0,0,0,3.9-3.9,9.8,9.8,0,0,0,.6-3.2c.1-1.4.1-1.9.1-5.5s0-4.1-.1-5.5a9.8,9.8,0,0,0-.6-3.2,6.8,6.8,0,0,0-3.9-3.9,9.8,9.8,0,0,0-3.2-.6Z"/>
      <path class="b" d="M21.1,13.2A6.9,6.9,0,1,0,28,20,6.9,6.9,0,0,0,21.1,13.2Zm0,11.3A4.5,4.5,0,1,1,25.6,20,4.5,4.5,0,0,1,21.1,24.5Z"/>
      <circle class="b" cx="28.2" cy="12.9" r="1.6"/>
    </g>
  </g>
</svg>
