<svg xmlns="http://www.w3.org/2000/svg" viewBox="0 0 41.7 41.7">
  <defs>
    <style>
      .a {
        fill: #56789c;
      }

      .b {
        fill: #fff;
        fill-rule: evenodd;
      }
    </style>
  </defs>
  <title>Ресурс 2</title>
  <g>
    <rect class="a" width="41.7" height="41.67"/>
    <path class="b" d="M35.9,12.9c.2-.7,0-1.3-1-1.3H31.5a1.5,1.5,0,0,0-1.5,1,28.6,28.6,0,0,1-4.2,7c-.8.8-1.2,1.1-1.6,1.1s-.5-.3-.5-1V12.9c0-.9-.3-1.3-1-1.3H17.3a.8.8,0,0,0-.9.8c0,.8,1.2,1,1.4,3.3v5c0,1.1-.2,1.3-.6,1.3s-4-4.3-5.7-9.1c-.3-.9-.7-1.3-1.5-1.3H6.5c-1,0-1.2.5-1.2,1S6.5,18,10.8,24c2.8,4.1,6.8,6.3,10.4,6.3s2.4-.5,2.4-1.3V25.8c0-1,.2-1.2.9-1.2s1.4.3,3.4,2.2,2.7,3.4,4,3.4h3.4c1,0,1.5-.5,1.2-1.5a14.7,14.7,0,0,0-2.9-4c-.8-.9-2-2-2.4-2.5s-.4-.9,0-1.5S35.5,14.9,35.9,12.9Z"/>
  </g>
</svg>
