<svg xmlns="http://www.w3.org/2000/svg" viewBox="0 0 41.7 41.7">
  <defs>
    <style>
      .a {
        fill: #fff;
      }

      .b {
        fill: #848484;
      }
    </style>
  </defs>
  <title>Ресурс 1</title>
  <g>
    <rect class="a" width="41.7" height="41.67"/>
    <g>
      <path class="b" d="M33.7,14.2a3.5,3.5,0,0,0-2.5-2.5c-2.2-.6-11-.6-11-.6s-8.8,0-11,.6a3.5,3.5,0,0,0-2.5,2.5,36.5,36.5,0,0,0-.6,6.8,36.5,36.5,0,0,0,.6,6.8,3.5,3.5,0,0,0,2.5,2.5c2.2.6,11,.6,11,.6s8.8,0,11-.6a3.5,3.5,0,0,0,2.5-2.5,36.5,36.5,0,0,0,.6-6.8A36.5,36.5,0,0,0,33.7,14.2Z"/>
      <polygon class="a" points="17.5 25.1 24.8 20.9 17.5 16.7 17.5 25.1"/>
    </g>
  </g>
</svg>
